<?xml version="1.0" encoding="UTF-8"?>
<!-- Generator: Adobe Illustrator 19.1.0, SVG Export Plug-In . SVG Version: 6.00 Build 0)  -->
<svg xmlns="http://www.w3.org/2000/svg" xmlns:xlink="http://www.w3.org/1999/xlink" xmlns:dc="http://purl.org/dc/elements/1.1/" xmlns:cc="http://creativecommons.org/ns#" xmlns:rdf="http://www.w3.org/1999/02/22-rdf-syntax-ns#" version="1.1" id="DESIGNS" x="0px" y="0px" width="32px" height="32px" viewBox="0 0 32 32" style="enable-background:new 0 0 32 32;" xml:space="preserve">
<title property="dc:title">to crop</title><desc property="dc:description">An icon for "crop" from the Puchi Puchi series on to [icon]. Downloaded from http://www.toicon.com/icons/puchi-puchi_crop by 186.168.112.176 on 2021-03-21. Licensed CC-BY, see http://toicon.com/license/ for details.</desc>
<path class="puchipuchi_een" d="M26,4H6C4.9,4,4,4.9,4,6v20c0,1.1,0.9,2,2,2h20c1.1,0,2-0.9,2-2V6C28,4.9,27.1,4,26,4z M9,27H6  c-0.553,0-1-0.448-1-1v-3c0-0.552,0.447-1,1-1s1,0.448,1,1v2h2c0.553,0,1,0.448,1,1S9.553,27,9,27z M9,7H7v2c0,0.552-0.447,1-1,1  S5,9.552,5,9V6c0-0.552,0.447-1,1-1h3c0.553,0,1,0.448,1,1S9.553,7,9,7z M27,26c0,0.552-0.447,1-1,1h-3c-0.553,0-1-0.448-1-1  s0.447-1,1-1h2v-2c0-0.552,0.447-1,1-1s1,0.448,1,1V26z M27,9c0,0.552-0.447,1-1,1s-1-0.448-1-1V7h-2c-0.553,0-1-0.448-1-1  s0.447-1,1-1h3c0.553,0,1,0.448,1,1V9z" style="fill: #111918;"/>
<metadata><work rdf:about=""><format>image/svg+xml</format><type rdf:resource="http://purl.org/dc/dcmitype/StillImage"/><license rdf:resource="http://creativecommons.org/licenses/by/4.0/"/><attributionname>Shannon E Thomas</attributionname><attributionurl>http://www.toicon.com/icons/puchi-puchi_crop</attributionurl></work></metadata></svg>
